<?xml version="1.0" encoding="UTF-8"?>
<svg width="1529px" height="686px" viewBox="0 0 1529 686" version="1.1" xmlns="http://www.w3.org/2000/svg" xmlns:xlink="http://www.w3.org/1999/xlink">
    <title>lung sethascope</title>
    <g id="Boradcaster---Set-Available!--&amp;-TIP-&amp;-TIPGOAL" stroke="none" stroke-width="1" fill="none" fill-rule="evenodd">
        <g id="lung-sethascope" fill-rule="nonzero">
            <rect id="Rectangle" fill="#FFFFFF" x="0" y="0" width="1529" height="686"></rect>
            <g id="lungs-(1)" transform="translate(792.000000, 142.000000)">
                <path d="M248.702662,126.221427 C224.105051,126.221427 225.9,118.23809 225.9,102.933109 L225.9,19.3876323 C225.9,8.69796679 217.196485,0 206.5,0 C195.803515,0 187.1,8.69796679 187.1,19.3876323 L187.1,102.933109 C187.1,118.23809 188.894949,126.221427 164.290717,126.221427 C162.503003,126.221427 161,127.667228 161,129.453802 L161,161.767625 C161,163.554199 162.516246,165 164.303959,165 C183.521877,165 195.730683,160.596427 206.490068,151.905077 C217.252765,160.596427 229.488055,165 248.702662,165 C250.490375,165 252,163.554199 252,161.767625 L252,129.453802 C252,127.667228 250.490375,126.221427 248.702662,126.221427 Z" id="Path" fill="#194F82"></path>
                <path d="M169.775032,212.82556 C167.496175,192.31412 165.147759,171.095045 165.147759,150.537094 C165.147759,98.3614914 159.453927,29 110.266378,29 C50.4629296,29 0.00345954381,188.261001 0.00345954381,288.263408 C-0.0197265065,291.419525 -0.387391018,365.820838 19.9269013,386.358856 C23.6300448,390.099685 27.849906,392 32.4771791,392 C44.7028522,392 50.7809097,387.315657 59.197446,380.840634 C69.7570357,372.71114 84.2118819,361.575029 120.895526,350.967153 C183.087137,332.980607 176.624854,274.622337 169.775032,212.82556 Z" id="Path" stroke="#194F82" stroke-width="10"></path>
                <path d="M413.996058,288.289986 C413.996058,188.264323 363.536582,29 303.732514,29 C254.535105,29 248.850836,98.3614914 248.850836,150.537094 C248.850836,171.095045 246.498954,192.310798 244.226571,212.82556 C237.376299,274.622337 230.906966,332.980607 293.109292,350.967153 C329.788723,361.575029 344.247832,372.71114 354.804804,380.833989 C363.221893,387.315657 369.300351,392 381.526828,392 C386.151093,392 390.371231,390.099685 394.074618,386.358856 C414.386934,365.820838 414.022558,291.422847 413.996058,288.289986 Z" id="Path" stroke="#194F82" stroke-width="10"></path>
                <path d="M155.503475,212.415544 C153.617524,195.520446 151.674007,178.042475 151.674007,161.109066 C151.674007,118.132468 146.961871,61 106.254934,61 C56.7624245,61 15.0028631,192.181926 15.0028631,274.553055 C14.9836746,277.152722 14.6794005,338.436448 31.4912287,355.353438 C34.5558991,358.434727 38.0481981,360 41.8776655,360 C51.9954639,360 57.0255805,356.141547 63.9909898,350.808126 C72.7299606,344.111931 84.6925919,334.939211 115.05147,326.201594 C166.520389,311.38623 161.172293,263.317021 155.503475,212.415544 Z" id="Path" fill="#56ACE0"></path>
                <path d="M398.996737,274.574947 C398.996737,192.184663 357.237171,61 307.744149,61 C267.029052,61 262.32483,118.132468 262.32483,161.109066 C262.32483,178.042475 260.378445,195.51771 258.497852,212.415544 C252.828661,263.317021 247.474731,311.38623 298.952517,326.201594 C329.307909,334.939211 341.274068,344.111931 350.010872,350.802652 C356.976739,356.141547 362.007187,360 372.12565,360 C375.952628,360 379.445156,358.434727 382.510028,355.353438 C399.320221,338.436448 399.018668,277.155458 398.996737,274.574947 Z" id="Path" fill="#56ACE0"></path>
                <g id="Group-28-Copy-9-Copy-2" transform="translate(286.000000, 125.000000)" fill="#194F82" stroke="#FFC10D" stroke-width="6">
                    <circle id="Oval" cx="12" cy="12" r="12"></circle>
                    <circle id="Oval-Copy" cx="12" cy="65.4074074" r="12"></circle>
                    <circle id="Oval-Copy-2" cx="12" cy="118.814815" r="12"></circle>
                    <circle id="Oval-Copy-3" cx="12" cy="174.222222" r="12"></circle>
                </g>
                <g id="Group-28-Copy-9-Copy-3" transform="translate(337.000000, 125.000000)" fill="#194F82" stroke="#FFC10D" stroke-width="6">
                    <circle id="Oval" cx="12" cy="12" r="12"></circle>
                    <circle id="Oval-Copy" cx="12" cy="65.4074074" r="12"></circle>
                    <circle id="Oval-Copy-2" cx="12" cy="118.814815" r="12"></circle>
                    <circle id="Oval-Copy-3" cx="12" cy="174.222222" r="12"></circle>
                </g>
            </g>
            <g id="Group-29" transform="translate(187.000000, 109.000000)">
                <g id="lungs">
                    <g id="Group" transform="translate(27.704932, 120.423077)" fill="#FFFFFF">
                        <path d="M255.474678,0.762133028 L255.474678,159.127122 C255.474678,187.654989 273.732256,212.365241 301.007958,220.601606 L403.178001,251.450619 L403.178001,161.372982 C403.178001,76.7634748 337.971542,7.20204128 255.474678,0.762133028 Z" id="Path"></path>
                        <path d="M0.906077562,161.37414 L0.906077562,251.601193 L103.076121,220.752179 C130.276892,212.515814 148.609401,187.80672 148.609401,159.277695 L148.609401,0.762133028 C72.2245261,6.60322248 2.54531712,70.2482798 0.906077562,161.37414 Z" id="Path"></path>
                    </g>
                    <path d="M338.461562,316.928255 C322.049162,311.913382 310.909592,296.941714 310.909592,279.650768 L310.909592,151.5 C366.903824,167.967678 407.897489,220.141569 407.897489,281.74657 L407.897489,337.961538 L338.461562,316.928255 Z" id="Path" fill="#56ACE0"></path>
                    <path d="M57.5818564,239.939175 L102.664632,239.939175 C109.560386,239.939175 115.19559,245.554949 115.19559,252.594359 C115.19559,259.633769 109.634941,265.249543 102.664632,265.249543 L52.0946157,265.249543 C51.5016175,270.715887 51.0565821,276.182232 51.0565821,281.72387 L51.0565821,290.485775 L75.4520927,290.485775 C82.3478475,290.485775 87.983051,296.101549 87.983051,303.140959 C87.983051,310.180369 82.4224024,315.796143 75.4520927,315.796143 L50.9820272,315.796143 L50.9820272,337.961538 L120.460313,316.844467 C136.84748,311.82757 147.969924,296.849856 147.969924,279.551928 L147.969924,151.5 C105.185734,163.856325 71.2254033,197.329721 57.5818564,239.939175 Z" id="Path" fill="#56ACE0"></path>
                    <g id="Group" transform="translate(0.548321, 0.000000)" fill="#194F82">
                        <path d="M267.673625,95.1443353 C260.729943,95.1443353 255.055574,100.805006 255.055574,107.900694 L255.055574,177.798532 L239.226705,161.796162 L239.226705,13.6227399 C239.226705,6.60294798 233.627408,0.866381503 226.608653,0.866381503 C219.589898,0.866381503 213.990602,6.52705202 213.990602,13.6227399 L213.990602,161.872058 L198.310724,177.798532 L198.310724,107.900694 C198.310724,100.880902 192.711428,95.1443353 185.692673,95.1443353 C83.325338,95.1443353 0,179.30711 0,282.945954 L0,391.038139 C0,395.114335 1.86643213,398.888116 5.07724978,401.228046 C7.76486585,403.190832 12.320069,404.474058 16.2019245,403.190832 L134.843947,367.109896 C172.848247,355.560867 198.308414,320.839052 198.308414,280.756647 L198.308414,213.803572 L226.681416,185.119572 L255.054419,213.803572 L255.054419,280.756647 C255.054419,320.837884 280.589659,355.560867 318.520041,367.109896 L437.162063,403.190832 C440.821009,404.398162 444.553874,403.643873 448.286738,401.228046 C451.497555,398.81222 453.363988,395.038439 453.363988,391.038139 L453.363988,282.945954 C453.363988,179.30711 370.03865,95.1443353 267.673625,95.1443353 Z M173.147384,280.681919 C173.147384,309.440647 154.854963,334.350867 127.527209,342.653884 L25.1621847,373.752543 L25.1621847,282.795329 C26.8045525,191.007931 96.6167371,126.922555 173.147384,121.035364 C173.147384,121.035364 173.147384,280.681919 173.147384,280.681919 Z M428.201803,373.752543 L325.836778,342.653884 C298.584097,334.350867 280.216603,309.441815 280.216603,280.681919 L280.216603,121.034197 C362.870903,127.52622 428.201803,197.64941 428.201803,282.794162 L428.201803,373.752543 L428.201803,373.752543 Z" id="Shape"></path>
                        <path d="M328.198679,156.509089 C321.852116,153.640222 314.385233,156.433193 311.473553,162.925216 C308.63579,169.341343 311.398479,176.890071 317.820115,179.833667 C336.112536,188.136684 351.792413,201.421979 363.216226,218.178638 C367.3233,223.688684 375.162084,225.500846 380.687462,221.424649 C386.361832,217.424349 387.855209,209.498476 383.89828,203.76191 C370.010916,183.078511 350.672092,166.774892 328.198679,156.509089 Z" id="Path"></path>
                    </g>
                </g>
                <g id="Group-28" transform="translate(9.000000, 89.000000)">
                    <circle id="Oval" fill="#FFC10D" cx="25" cy="25" r="25"></circle>
                    <circle id="Oval" fill="#194F82" cx="25" cy="25" r="10.7142857"></circle>
                </g>
                <g id="Group-28-Copy-8" transform="translate(288.000000, 89.000000)">
                    <circle id="Oval" fill="#FFC10D" cx="25" cy="25" r="25"></circle>
                    <circle id="Oval" fill="#194F82" cx="25" cy="25" r="10.7142857"></circle>
                </g>
                <g id="Group-28-Copy-4" transform="translate(126.000000, 89.000000)">
                    <circle id="Oval" fill="#FFC10D" cx="25" cy="25" r="25"></circle>
                    <circle id="Oval" fill="#194F82" cx="25" cy="25" r="10.7142857"></circle>
                </g>
                <g id="Group-28-Copy-9" transform="translate(405.000000, 89.000000)">
                    <circle id="Oval" fill="#FFC10D" cx="25" cy="25" r="25"></circle>
                    <circle id="Oval" fill="#194F82" cx="25" cy="25" r="10.7142857"></circle>
                </g>
                <g id="Group-28-Copy" transform="translate(9.000000, 176.000000)">
                    <circle id="Oval" fill="#FFC10D" cx="25" cy="25" r="25"></circle>
                    <circle id="Oval" fill="#194F82" cx="25" cy="25" r="10.7142857"></circle>
                </g>
                <g id="Group-28-Copy-10" transform="translate(288.000000, 176.000000)">
                    <circle id="Oval" fill="#FFC10D" cx="25" cy="25" r="25"></circle>
                    <circle id="Oval" fill="#194F82" cx="25" cy="25" r="10.7142857"></circle>
                </g>
                <g id="Group-28-Copy-5" transform="translate(126.000000, 176.000000)">
                    <circle id="Oval" fill="#FFC10D" cx="25" cy="25" r="25"></circle>
                    <circle id="Oval" fill="#194F82" cx="25" cy="25" r="10.7142857"></circle>
                </g>
                <g id="Group-28-Copy-11" transform="translate(405.000000, 176.000000)">
                    <circle id="Oval" fill="#FFC10D" cx="25" cy="25" r="25"></circle>
                    <circle id="Oval" fill="#194F82" cx="25" cy="25" r="10.7142857"></circle>
                </g>
                <g id="Group-28-Copy-2" transform="translate(9.000000, 261.000000)">
                    <circle id="Oval" fill="#FFC10D" cx="25" cy="25" r="25"></circle>
                    <circle id="Oval" fill="#194F82" cx="25" cy="25" r="10.7142857"></circle>
                </g>
                <g id="Group-28-Copy-12" transform="translate(288.000000, 261.000000)">
                    <circle id="Oval" fill="#FFC10D" cx="25" cy="25" r="25"></circle>
                    <circle id="Oval" fill="#194F82" cx="25" cy="25" r="10.7142857"></circle>
                </g>
                <g id="Group-28-Copy-6" transform="translate(126.000000, 261.000000)">
                    <circle id="Oval" fill="#FFC10D" cx="25" cy="25" r="25"></circle>
                    <circle id="Oval" fill="#194F82" cx="25" cy="25" r="10.7142857"></circle>
                </g>
                <g id="Group-28-Copy-13" transform="translate(405.000000, 261.000000)">
                    <circle id="Oval" fill="#FFC10D" cx="25" cy="25" r="25"></circle>
                    <circle id="Oval" fill="#194F82" cx="25" cy="25" r="10.7142857"></circle>
                </g>
                <g id="Group-28-Copy-3" transform="translate(9.000000, 346.000000)">
                    <circle id="Oval" fill="#FFC10D" cx="25" cy="25" r="25"></circle>
                    <circle id="Oval" fill="#194F82" cx="25" cy="25" r="10.7142857"></circle>
                </g>
                <g id="Group-28-Copy-14" transform="translate(288.000000, 346.000000)">
                    <circle id="Oval" fill="#FFC10D" cx="25" cy="25" r="25"></circle>
                    <circle id="Oval" fill="#194F82" cx="25" cy="25" r="10.7142857"></circle>
                </g>
                <g id="Group-28-Copy-7" transform="translate(126.000000, 346.000000)">
                    <circle id="Oval" fill="#FFC10D" cx="25" cy="25" r="25"></circle>
                    <circle id="Oval" fill="#194F82" cx="25" cy="25" r="10.7142857"></circle>
                </g>
                <g id="Group-28-Copy-15" transform="translate(405.000000, 346.000000)">
                    <circle id="Oval" fill="#FFC10D" cx="25" cy="25" r="25"></circle>
                    <circle id="Oval" fill="#194F82" cx="25" cy="25" r="10.7142857"></circle>
                </g>
            </g>
            <g id="Group-28-Copy-9" transform="translate(848.000000, 267.000000)" fill="#194F82" stroke="#FFC10D" stroke-width="6">
                <circle id="Oval" cx="12" cy="12" r="12"></circle>
                <circle id="Oval-Copy" cx="12" cy="65.4074074" r="12"></circle>
                <circle id="Oval-Copy-2" cx="12" cy="118.814815" r="12"></circle>
                <circle id="Oval-Copy-3" cx="12" cy="174.222222" r="12"></circle>
            </g>
            <g id="Group-28-Copy-9-Copy" transform="translate(899.000000, 267.000000)" fill="#194F82" stroke="#FFC10D" stroke-width="6">
                <circle id="Oval" cx="12" cy="12" r="12"></circle>
                <circle id="Oval-Copy" cx="12" cy="65.4074074" r="12"></circle>
                <circle id="Oval-Copy-2" cx="12" cy="118.814815" r="12"></circle>
                <circle id="Oval-Copy-3" cx="12" cy="174.222222" r="12"></circle>
            </g>
        </g>
    </g>
</svg>